<svg width="140" height="138" viewBox="0 0 140 138" fill="none" xmlns="http://www.w3.org/2000/svg">
<path d="M89.9595 0H18.3916C13.8267 0.0117418 9.42856 1.64361 6.04773 4.58C2.6669 7.51639 0.543577 11.5487 0.0884196 15.897C0.0884196 16.4388 0 17.0144 0 17.59V90.7264C0.0139975 95.3919 1.95617 99.8625 5.40222 103.162C8.84828 106.461 13.5181 108.32 18.3916 108.333H89.9595C94.8298 108.315 99.4951 106.454 102.937 103.156C106.38 99.8571 108.319 95.389 108.333 90.7264V17.5731C108.315 12.915 106.372 8.453 102.93 5.16079C99.4878 1.86858 94.8252 0.0133769 89.9595 0Z" fill="#1890FF"/>
<path opacity="0.4" d="M121.626 31.6666H50.0582C45.4933 31.6784 41.0952 33.3102 37.7144 36.2466C34.3335 39.183 32.2102 43.2153 31.755 47.5636C31.755 48.1054 31.6666 48.681 31.6666 49.2566V122.393C31.6806 127.059 33.6228 131.529 37.0688 134.828C40.5149 138.127 45.1847 139.987 50.0582 140H121.626C126.496 139.982 131.162 138.121 134.604 134.822C138.046 131.524 139.986 127.056 140 122.393V49.2397C139.981 44.5816 138.039 40.1196 134.597 36.8274C131.154 33.5352 126.492 31.68 121.626 31.6666V31.6666Z" fill="#91D5FF"/>
</svg>
